<?xml version="1.0" encoding="iso-8859-1"?>
<!-- Generator: Adobe Illustrator 19.0.1, SVG Export Plug-In . SVG Version: 6.00 Build 0)  -->
<svg version="1.1" xmlns="http://www.w3.org/2000/svg" xmlns:xlink="http://www.w3.org/1999/xlink" x="0px" y="0px"
	 viewBox="0 0 128 128" style="enable-background:new 0 0 128 128;" xml:space="preserve">
<g id="_x36_">
	<path id="icon_5_" style="fill:#191919;" d="M116.241,43.865V25.92c0-1.821-0.887-3.538-2.37-4.588
		c-1.495-1.051-3.409-1.319-5.126-0.701l-2.312,0.829l-0.514-8.92l-2.545,0.42c-0.841,0.128-20.129,3.409-41.46,21.156
		C40.572,16.369,21.284,13.089,20.455,12.96l-2.872-0.467l0.455,8.044c-1.483-0.304-3.047,0-4.308,0.876
		c-1.529,1.039-2.44,2.779-2.44,4.624v17.56h4.67v-17.56c0-0.432,0.257-0.677,0.409-0.782c0.152-0.105,0.467-0.257,0.876-0.093
		l38.074,14.641l0.07,0.023l4.192,1.611v68.384L16.497,89.377c-0.327-0.152-0.537-0.49-0.537-0.852V75.658h-4.67v12.867
		c0,2.16,1.261,4.145,3.211,5.067l45.056,21.378c0.759,0.362,1.576,0.537,2.405,0.537c0.771,0,1.541-0.152,2.265-0.467
		l48.664-21.448c2.043-0.887,3.351-2.907,3.351-5.137V74.561h-4.67v13.894c0,0.374-0.222,0.712-0.56,0.864L64.25,109.926V41.484
		l46.06-16.451c0.409-0.152,0.712,0.012,0.864,0.117c0.152,0.105,0.397,0.339,0.397,0.771v17.945H116.241z M22.825,22.289
		l-0.233-4.075c5.534,1.459,18.366,5.709,32.598,16.544L22.825,22.289z M68.138,35.132c14.676-11.302,28.01-15.599,33.427-16.988
		l0.28,4.95L68.138,35.132z M19.278,46.99c0,0,7.037,1.634,5.418,3.659S7.893,51.47,5.474,52.522
		c-2.419,1.052-7.724-0.592-3.916-4.849S19.278,46.99,19.278,46.99z M3.105,63.014c-3.237,4.706,2.234,5.663,4.5,4.313
		s17.48-2.082,18.829-4.296c1.349-2.214-5.838-2.942-5.838-2.942S6.342,58.308,3.105,63.014z M5.766,70.729
		c-1.887,3.927,2.102,4.141,3.597,2.887c1.495-1.254,12.283-3.267,13.046-5.099c0.764-1.831-4.429-1.705-4.429-1.705
		S7.653,66.802,5.766,70.729z M0.023,58.193c0.185,2.599,3.07,2.653,4.899,1.89c1.83-0.763,11.278-1.566,15.151-1.138
		c3.873,0.428,8.877-0.164,9.32-2.045c0.66-2.799-6.658-3.184-6.658-3.184C2.299,53.129-0.288,53.809,0.023,58.193z M125.742,47.986
		c4.093,3.984-1.086,5.99-3.572,5.108c-2.486-0.882-17.55,1.37-19.305-0.538s5.152-4.025,5.152-4.025S121.648,44.002,125.742,47.986
		z M107.608,61.688c0,0-7.12,1.223-5.621,3.339c1.499,2.116,16.727,1.794,19.081,2.984c2.354,1.19,7.746-0.142,4.191-4.613
		S107.608,61.688,107.608,61.688z M110.681,68.215c0,0-5.189,0.234-4.3,2.008s11.789,3.037,13.368,4.184
		c1.578,1.148,5.543,0.659,3.389-3.128C120.984,67.491,110.681,68.215,110.681,68.215z M105.032,55.479c0,0-7.274,0.891-6.422,3.637
		c0.572,1.845,5.605,2.09,9.439,1.395c3.834-0.695,13.316-0.548,15.194,0.087s4.752,0.381,4.757-2.224
		C128.008,53.979,125.379,53.48,105.032,55.479z"/>
</g>
<g id="Layer_1">
</g>
</svg>
